%TF.GenerationSoftware,KiCad,Pcbnew,(5.1.6)-1*%
%TF.CreationDate,2022-11-10T12:24:41-05:00*%
%TF.ProjectId,MAX16054-breakout,4d415831-3630-4353-942d-627265616b6f,rev?*%
%TF.SameCoordinates,Original*%
%TF.FileFunction,Legend,Bot*%
%TF.FilePolarity,Positive*%
%FSLAX46Y46*%
G04 Gerber Fmt 4.6, Leading zero omitted, Abs format (unit mm)*
G04 Created by KiCad (PCBNEW (5.1.6)-1) date 2022-11-10 12:24:41*
%MOMM*%
%LPD*%
G01*
G04 APERTURE LIST*
%ADD10C,0.125000*%
G04 APERTURE END LIST*
D10*
X156081123Y-95230190D02*
X156081123Y-95587333D01*
X156104933Y-95658761D01*
X156152552Y-95706380D01*
X156223980Y-95730190D01*
X156271600Y-95730190D01*
X155604933Y-95730190D02*
X155843028Y-95730190D01*
X155843028Y-95230190D01*
X155152552Y-95682571D02*
X155176361Y-95706380D01*
X155247790Y-95730190D01*
X155295409Y-95730190D01*
X155366838Y-95706380D01*
X155414457Y-95658761D01*
X155438266Y-95611142D01*
X155462076Y-95515904D01*
X155462076Y-95444476D01*
X155438266Y-95349238D01*
X155414457Y-95301619D01*
X155366838Y-95254000D01*
X155295409Y-95230190D01*
X155247790Y-95230190D01*
X155176361Y-95254000D01*
X155152552Y-95277809D01*
X154795409Y-95230190D02*
X154795409Y-95587333D01*
X154819219Y-95658761D01*
X154866838Y-95706380D01*
X154938266Y-95730190D01*
X154985885Y-95730190D01*
X154319219Y-95730190D02*
X154557314Y-95730190D01*
X154557314Y-95230190D01*
X153866838Y-95682571D02*
X153890647Y-95706380D01*
X153962076Y-95730190D01*
X154009695Y-95730190D01*
X154081123Y-95706380D01*
X154128742Y-95658761D01*
X154152552Y-95611142D01*
X154176361Y-95515904D01*
X154176361Y-95444476D01*
X154152552Y-95349238D01*
X154128742Y-95301619D01*
X154081123Y-95254000D01*
X154009695Y-95230190D01*
X153962076Y-95230190D01*
X153890647Y-95254000D01*
X153866838Y-95277809D01*
X153509695Y-95230190D02*
X153509695Y-95587333D01*
X153533504Y-95658761D01*
X153581123Y-95706380D01*
X153652552Y-95730190D01*
X153700171Y-95730190D01*
X153033504Y-95730190D02*
X153271600Y-95730190D01*
X153271600Y-95230190D01*
X152581123Y-95682571D02*
X152604933Y-95706380D01*
X152676361Y-95730190D01*
X152723980Y-95730190D01*
X152795409Y-95706380D01*
X152843028Y-95658761D01*
X152866838Y-95611142D01*
X152890647Y-95515904D01*
X152890647Y-95444476D01*
X152866838Y-95349238D01*
X152843028Y-95301619D01*
X152795409Y-95254000D01*
X152723980Y-95230190D01*
X152676361Y-95230190D01*
X152604933Y-95254000D01*
X152581123Y-95277809D01*
X152223980Y-95230190D02*
X152223980Y-95587333D01*
X152247790Y-95658761D01*
X152295409Y-95706380D01*
X152366838Y-95730190D01*
X152414457Y-95730190D01*
X151747790Y-95730190D02*
X151985885Y-95730190D01*
X151985885Y-95230190D01*
X151295409Y-95682571D02*
X151319219Y-95706380D01*
X151390647Y-95730190D01*
X151438266Y-95730190D01*
X151509695Y-95706380D01*
X151557314Y-95658761D01*
X151581123Y-95611142D01*
X151604933Y-95515904D01*
X151604933Y-95444476D01*
X151581123Y-95349238D01*
X151557314Y-95301619D01*
X151509695Y-95254000D01*
X151438266Y-95230190D01*
X151390647Y-95230190D01*
X151319219Y-95254000D01*
X151295409Y-95277809D01*
X155606523Y-91787490D02*
X155606523Y-91287490D01*
X155439857Y-91644633D01*
X155273190Y-91287490D01*
X155273190Y-91787490D01*
X155058904Y-91644633D02*
X154820809Y-91644633D01*
X155106523Y-91787490D02*
X154939857Y-91287490D01*
X154773190Y-91787490D01*
X154654142Y-91287490D02*
X154320809Y-91787490D01*
X154320809Y-91287490D02*
X154654142Y-91787490D01*
X153868428Y-91787490D02*
X154154142Y-91787490D01*
X154011285Y-91787490D02*
X154011285Y-91287490D01*
X154058904Y-91358919D01*
X154106523Y-91406538D01*
X154154142Y-91430347D01*
X153439857Y-91287490D02*
X153535095Y-91287490D01*
X153582714Y-91311300D01*
X153606523Y-91335109D01*
X153654142Y-91406538D01*
X153677952Y-91501776D01*
X153677952Y-91692252D01*
X153654142Y-91739871D01*
X153630333Y-91763680D01*
X153582714Y-91787490D01*
X153487476Y-91787490D01*
X153439857Y-91763680D01*
X153416047Y-91739871D01*
X153392238Y-91692252D01*
X153392238Y-91573204D01*
X153416047Y-91525585D01*
X153439857Y-91501776D01*
X153487476Y-91477966D01*
X153582714Y-91477966D01*
X153630333Y-91501776D01*
X153654142Y-91525585D01*
X153677952Y-91573204D01*
X153082714Y-91287490D02*
X153035095Y-91287490D01*
X152987476Y-91311300D01*
X152963666Y-91335109D01*
X152939857Y-91382728D01*
X152916047Y-91477966D01*
X152916047Y-91597014D01*
X152939857Y-91692252D01*
X152963666Y-91739871D01*
X152987476Y-91763680D01*
X153035095Y-91787490D01*
X153082714Y-91787490D01*
X153130333Y-91763680D01*
X153154142Y-91739871D01*
X153177952Y-91692252D01*
X153201761Y-91597014D01*
X153201761Y-91477966D01*
X153177952Y-91382728D01*
X153154142Y-91335109D01*
X153130333Y-91311300D01*
X153082714Y-91287490D01*
X152463666Y-91287490D02*
X152701761Y-91287490D01*
X152725571Y-91525585D01*
X152701761Y-91501776D01*
X152654142Y-91477966D01*
X152535095Y-91477966D01*
X152487476Y-91501776D01*
X152463666Y-91525585D01*
X152439857Y-91573204D01*
X152439857Y-91692252D01*
X152463666Y-91739871D01*
X152487476Y-91763680D01*
X152535095Y-91787490D01*
X152654142Y-91787490D01*
X152701761Y-91763680D01*
X152725571Y-91739871D01*
X152011285Y-91454157D02*
X152011285Y-91787490D01*
X152130333Y-91263680D02*
X152249380Y-91620823D01*
X151939857Y-91620823D01*
X155416047Y-92400585D02*
X155344619Y-92424395D01*
X155320809Y-92448204D01*
X155297000Y-92495823D01*
X155297000Y-92567252D01*
X155320809Y-92614871D01*
X155344619Y-92638680D01*
X155392238Y-92662490D01*
X155582714Y-92662490D01*
X155582714Y-92162490D01*
X155416047Y-92162490D01*
X155368428Y-92186300D01*
X155344619Y-92210109D01*
X155320809Y-92257728D01*
X155320809Y-92305347D01*
X155344619Y-92352966D01*
X155368428Y-92376776D01*
X155416047Y-92400585D01*
X155582714Y-92400585D01*
X154797000Y-92662490D02*
X154963666Y-92424395D01*
X155082714Y-92662490D02*
X155082714Y-92162490D01*
X154892238Y-92162490D01*
X154844619Y-92186300D01*
X154820809Y-92210109D01*
X154797000Y-92257728D01*
X154797000Y-92329157D01*
X154820809Y-92376776D01*
X154844619Y-92400585D01*
X154892238Y-92424395D01*
X155082714Y-92424395D01*
X154582714Y-92400585D02*
X154416047Y-92400585D01*
X154344619Y-92662490D02*
X154582714Y-92662490D01*
X154582714Y-92162490D01*
X154344619Y-92162490D01*
X154154142Y-92519633D02*
X153916047Y-92519633D01*
X154201761Y-92662490D02*
X154035095Y-92162490D01*
X153868428Y-92662490D01*
X153701761Y-92662490D02*
X153701761Y-92162490D01*
X153416047Y-92662490D02*
X153630333Y-92376776D01*
X153416047Y-92162490D02*
X153701761Y-92448204D01*
X153106523Y-92162490D02*
X153011285Y-92162490D01*
X152963666Y-92186300D01*
X152916047Y-92233919D01*
X152892238Y-92329157D01*
X152892238Y-92495823D01*
X152916047Y-92591061D01*
X152963666Y-92638680D01*
X153011285Y-92662490D01*
X153106523Y-92662490D01*
X153154142Y-92638680D01*
X153201761Y-92591061D01*
X153225571Y-92495823D01*
X153225571Y-92329157D01*
X153201761Y-92233919D01*
X153154142Y-92186300D01*
X153106523Y-92162490D01*
X152677952Y-92162490D02*
X152677952Y-92567252D01*
X152654142Y-92614871D01*
X152630333Y-92638680D01*
X152582714Y-92662490D01*
X152487476Y-92662490D01*
X152439857Y-92638680D01*
X152416047Y-92614871D01*
X152392238Y-92567252D01*
X152392238Y-92162490D01*
X152225571Y-92162490D02*
X151939857Y-92162490D01*
X152082714Y-92662490D02*
X152082714Y-92162490D01*
X154670819Y-94891990D02*
X154670819Y-94558657D01*
X154670819Y-94653895D02*
X154647009Y-94606276D01*
X154623200Y-94582466D01*
X154575580Y-94558657D01*
X154527961Y-94558657D01*
X154170819Y-94868180D02*
X154218438Y-94891990D01*
X154313676Y-94891990D01*
X154361295Y-94868180D01*
X154385104Y-94820561D01*
X154385104Y-94630085D01*
X154361295Y-94582466D01*
X154313676Y-94558657D01*
X154218438Y-94558657D01*
X154170819Y-94582466D01*
X154147009Y-94630085D01*
X154147009Y-94677704D01*
X154385104Y-94725323D01*
X153980342Y-94558657D02*
X153861295Y-94891990D01*
X153742247Y-94558657D01*
X153551771Y-94844371D02*
X153527961Y-94868180D01*
X153551771Y-94891990D01*
X153575580Y-94868180D01*
X153551771Y-94844371D01*
X153551771Y-94891990D01*
X153218438Y-94391990D02*
X153170819Y-94391990D01*
X153123200Y-94415800D01*
X153099390Y-94439609D01*
X153075580Y-94487228D01*
X153051771Y-94582466D01*
X153051771Y-94701514D01*
X153075580Y-94796752D01*
X153099390Y-94844371D01*
X153123200Y-94868180D01*
X153170819Y-94891990D01*
X153218438Y-94891990D01*
X153266057Y-94868180D01*
X153289866Y-94844371D01*
X153313676Y-94796752D01*
X153337485Y-94701514D01*
X153337485Y-94582466D01*
X153313676Y-94487228D01*
X153289866Y-94439609D01*
X153266057Y-94415800D01*
X153218438Y-94391990D01*
X156213666Y-88513457D02*
X156118428Y-88846790D01*
X156023190Y-88608695D01*
X155927952Y-88846790D01*
X155832714Y-88513457D01*
X155642238Y-88846790D02*
X155642238Y-88513457D01*
X155642238Y-88346790D02*
X155666047Y-88370600D01*
X155642238Y-88394409D01*
X155618428Y-88370600D01*
X155642238Y-88346790D01*
X155642238Y-88394409D01*
X155404142Y-88846790D02*
X155404142Y-88513457D01*
X155404142Y-88608695D02*
X155380333Y-88561076D01*
X155356523Y-88537266D01*
X155308904Y-88513457D01*
X155261285Y-88513457D01*
X154904142Y-88822980D02*
X154951761Y-88846790D01*
X155047000Y-88846790D01*
X155094619Y-88822980D01*
X155118428Y-88775361D01*
X155118428Y-88584885D01*
X155094619Y-88537266D01*
X155047000Y-88513457D01*
X154951761Y-88513457D01*
X154904142Y-88537266D01*
X154880333Y-88584885D01*
X154880333Y-88632504D01*
X155118428Y-88680123D01*
X154737476Y-88513457D02*
X154547000Y-88513457D01*
X154666047Y-88346790D02*
X154666047Y-88775361D01*
X154642238Y-88822980D01*
X154594619Y-88846790D01*
X154547000Y-88846790D01*
X154166047Y-88846790D02*
X154166047Y-88584885D01*
X154189857Y-88537266D01*
X154237476Y-88513457D01*
X154332714Y-88513457D01*
X154380333Y-88537266D01*
X154166047Y-88822980D02*
X154213666Y-88846790D01*
X154332714Y-88846790D01*
X154380333Y-88822980D01*
X154404142Y-88775361D01*
X154404142Y-88727742D01*
X154380333Y-88680123D01*
X154332714Y-88656314D01*
X154213666Y-88656314D01*
X154166047Y-88632504D01*
X153927952Y-88513457D02*
X153927952Y-89013457D01*
X153927952Y-88537266D02*
X153880333Y-88513457D01*
X153785095Y-88513457D01*
X153737476Y-88537266D01*
X153713666Y-88561076D01*
X153689857Y-88608695D01*
X153689857Y-88751552D01*
X153713666Y-88799171D01*
X153737476Y-88822980D01*
X153785095Y-88846790D01*
X153880333Y-88846790D01*
X153927952Y-88822980D01*
X153118428Y-88394409D02*
X153094619Y-88370600D01*
X153047000Y-88346790D01*
X152927952Y-88346790D01*
X152880333Y-88370600D01*
X152856523Y-88394409D01*
X152832714Y-88442028D01*
X152832714Y-88489647D01*
X152856523Y-88561076D01*
X153142238Y-88846790D01*
X152832714Y-88846790D01*
X152523190Y-88346790D02*
X152475571Y-88346790D01*
X152427952Y-88370600D01*
X152404142Y-88394409D01*
X152380333Y-88442028D01*
X152356523Y-88537266D01*
X152356523Y-88656314D01*
X152380333Y-88751552D01*
X152404142Y-88799171D01*
X152427952Y-88822980D01*
X152475571Y-88846790D01*
X152523190Y-88846790D01*
X152570809Y-88822980D01*
X152594619Y-88799171D01*
X152618428Y-88751552D01*
X152642238Y-88656314D01*
X152642238Y-88537266D01*
X152618428Y-88442028D01*
X152594619Y-88394409D01*
X152570809Y-88370600D01*
X152523190Y-88346790D01*
X152166047Y-88394409D02*
X152142238Y-88370600D01*
X152094619Y-88346790D01*
X151975571Y-88346790D01*
X151927952Y-88370600D01*
X151904142Y-88394409D01*
X151880333Y-88442028D01*
X151880333Y-88489647D01*
X151904142Y-88561076D01*
X152189857Y-88846790D01*
X151880333Y-88846790D01*
X151689857Y-88394409D02*
X151666047Y-88370600D01*
X151618428Y-88346790D01*
X151499380Y-88346790D01*
X151451761Y-88370600D01*
X151427952Y-88394409D01*
X151404142Y-88442028D01*
X151404142Y-88489647D01*
X151427952Y-88561076D01*
X151713666Y-88846790D01*
X151404142Y-88846790D01*
M02*
