%FSLAX45Y45*%
G04 Gerber Fmt 4.5, Leading zero omitted, Abs format (unit mm)*
G04 Created by KiCad (PCBNEW (5.1.6)-1) date 2022-11-10 12:24:44*
%MOMM*%
%LPD*%
G01*
G04 APERTURE LIST*
%TA.AperFunction,Profile*%
%ADD10C,0.050000*%
%TD*%
%ADD11C,0.200000*%
%ADD12C,0.300000*%
G04 APERTURE END LIST*
D10*
X15910560Y-9613900D02*
X15910560Y-8788400D01*
X14846300Y-9613900D02*
X15910560Y-9613900D01*
X14846300Y-8788400D02*
X14846300Y-9613900D01*
X15910560Y-8788400D02*
X14846300Y-8788400D01*
D11*
X14958700Y-8905880D02*
X15038700Y-8985880D01*
X15038700Y-8905880D02*
X14958700Y-8985880D01*
X14958700Y-9159880D02*
X15038700Y-9239880D01*
X15038700Y-9159880D02*
X14958700Y-9239880D01*
X14958700Y-9413880D02*
X15038700Y-9493880D01*
X15038700Y-9413880D02*
X14958700Y-9493880D01*
X15720700Y-8905880D02*
X15800700Y-8985880D01*
X15800700Y-8905880D02*
X15720700Y-8985880D01*
X15720700Y-9159880D02*
X15800700Y-9239880D01*
X15800700Y-9159880D02*
X15720700Y-9239880D01*
X15720700Y-9413880D02*
X15800700Y-9493880D01*
X15800700Y-9413880D02*
X15720700Y-9493880D01*
D12*
X15130228Y-10082114D02*
X15130228Y-9782114D01*
X15201657Y-9782114D01*
X15244514Y-9796400D01*
X15273086Y-9824972D01*
X15287371Y-9853543D01*
X15301657Y-9910686D01*
X15301657Y-9953543D01*
X15287371Y-10010686D01*
X15273086Y-10039257D01*
X15244514Y-10067829D01*
X15201657Y-10082114D01*
X15130228Y-10082114D01*
X15430228Y-10082114D02*
X15430228Y-9882114D01*
X15430228Y-9939257D02*
X15444514Y-9910686D01*
X15458800Y-9896400D01*
X15487371Y-9882114D01*
X15515943Y-9882114D01*
X15615943Y-10082114D02*
X15615943Y-9882114D01*
X15615943Y-9782114D02*
X15601657Y-9796400D01*
X15615943Y-9810686D01*
X15630228Y-9796400D01*
X15615943Y-9782114D01*
X15615943Y-9810686D01*
X15801657Y-10082114D02*
X15773086Y-10067829D01*
X15758800Y-10039257D01*
X15758800Y-9782114D01*
X15958800Y-10082114D02*
X15930228Y-10067829D01*
X15915943Y-10039257D01*
X15915943Y-9782114D01*
X16301657Y-10082114D02*
X16301657Y-9782114D01*
X16401657Y-9996400D01*
X16501657Y-9782114D01*
X16501657Y-10082114D01*
X16773086Y-10082114D02*
X16773086Y-9924972D01*
X16758800Y-9896400D01*
X16730228Y-9882114D01*
X16673086Y-9882114D01*
X16644514Y-9896400D01*
X16773086Y-10067829D02*
X16744514Y-10082114D01*
X16673086Y-10082114D01*
X16644514Y-10067829D01*
X16630228Y-10039257D01*
X16630228Y-10010686D01*
X16644514Y-9982114D01*
X16673086Y-9967829D01*
X16744514Y-9967829D01*
X16773086Y-9953543D01*
X16915943Y-9882114D02*
X16915943Y-10182114D01*
X16915943Y-9896400D02*
X16944514Y-9882114D01*
X17001657Y-9882114D01*
X17030228Y-9896400D01*
X17044514Y-9910686D01*
X17058800Y-9939257D01*
X17058800Y-10024972D01*
X17044514Y-10053543D01*
X17030228Y-10067829D01*
X17001657Y-10082114D01*
X16944514Y-10082114D01*
X16915943Y-10067829D01*
X17187371Y-10053543D02*
X17201657Y-10067829D01*
X17187371Y-10082114D01*
X17173086Y-10067829D01*
X17187371Y-10053543D01*
X17187371Y-10082114D01*
X17187371Y-9896400D02*
X17201657Y-9910686D01*
X17187371Y-9924972D01*
X17173086Y-9910686D01*
X17187371Y-9896400D01*
X17187371Y-9924972D01*
X14763800Y-10536400D02*
X14843800Y-10616400D01*
X14843800Y-10536400D02*
X14763800Y-10616400D01*
X15187371Y-10412114D02*
X15215943Y-10412114D01*
X15244514Y-10426400D01*
X15258800Y-10440686D01*
X15273086Y-10469257D01*
X15287371Y-10526400D01*
X15287371Y-10597829D01*
X15273086Y-10654972D01*
X15258800Y-10683543D01*
X15244514Y-10697829D01*
X15215943Y-10712114D01*
X15187371Y-10712114D01*
X15158800Y-10697829D01*
X15144514Y-10683543D01*
X15130228Y-10654972D01*
X15115943Y-10597829D01*
X15115943Y-10526400D01*
X15130228Y-10469257D01*
X15144514Y-10440686D01*
X15158800Y-10426400D01*
X15187371Y-10412114D01*
X15415943Y-10683543D02*
X15430228Y-10697829D01*
X15415943Y-10712114D01*
X15401657Y-10697829D01*
X15415943Y-10683543D01*
X15415943Y-10712114D01*
X15601657Y-10540686D02*
X15573086Y-10526400D01*
X15558800Y-10512114D01*
X15544514Y-10483543D01*
X15544514Y-10469257D01*
X15558800Y-10440686D01*
X15573086Y-10426400D01*
X15601657Y-10412114D01*
X15658800Y-10412114D01*
X15687371Y-10426400D01*
X15701657Y-10440686D01*
X15715943Y-10469257D01*
X15715943Y-10483543D01*
X15701657Y-10512114D01*
X15687371Y-10526400D01*
X15658800Y-10540686D01*
X15601657Y-10540686D01*
X15573086Y-10554972D01*
X15558800Y-10569257D01*
X15544514Y-10597829D01*
X15544514Y-10654972D01*
X15558800Y-10683543D01*
X15573086Y-10697829D01*
X15601657Y-10712114D01*
X15658800Y-10712114D01*
X15687371Y-10697829D01*
X15701657Y-10683543D01*
X15715943Y-10654972D01*
X15715943Y-10597829D01*
X15701657Y-10569257D01*
X15687371Y-10554972D01*
X15658800Y-10540686D01*
X15901657Y-10412114D02*
X15930228Y-10412114D01*
X15958800Y-10426400D01*
X15973086Y-10440686D01*
X15987371Y-10469257D01*
X16001657Y-10526400D01*
X16001657Y-10597829D01*
X15987371Y-10654972D01*
X15973086Y-10683543D01*
X15958800Y-10697829D01*
X15930228Y-10712114D01*
X15901657Y-10712114D01*
X15873086Y-10697829D01*
X15858800Y-10683543D01*
X15844514Y-10654972D01*
X15830228Y-10597829D01*
X15830228Y-10526400D01*
X15844514Y-10469257D01*
X15858800Y-10440686D01*
X15873086Y-10426400D01*
X15901657Y-10412114D01*
X16130228Y-10712114D02*
X16130228Y-10512114D01*
X16130228Y-10540686D02*
X16144514Y-10526400D01*
X16173086Y-10512114D01*
X16215943Y-10512114D01*
X16244514Y-10526400D01*
X16258800Y-10554972D01*
X16258800Y-10712114D01*
X16258800Y-10554972D02*
X16273086Y-10526400D01*
X16301657Y-10512114D01*
X16344514Y-10512114D01*
X16373086Y-10526400D01*
X16387371Y-10554972D01*
X16387371Y-10712114D01*
X16530228Y-10712114D02*
X16530228Y-10512114D01*
X16530228Y-10540686D02*
X16544514Y-10526400D01*
X16573086Y-10512114D01*
X16615943Y-10512114D01*
X16644514Y-10526400D01*
X16658800Y-10554972D01*
X16658800Y-10712114D01*
X16658800Y-10554972D02*
X16673086Y-10526400D01*
X16701657Y-10512114D01*
X16744514Y-10512114D01*
X16773086Y-10526400D01*
X16787371Y-10554972D01*
X16787371Y-10712114D01*
X17373086Y-10397829D02*
X17115943Y-10783543D01*
X17758800Y-10412114D02*
X17787371Y-10412114D01*
X17815943Y-10426400D01*
X17830228Y-10440686D01*
X17844514Y-10469257D01*
X17858800Y-10526400D01*
X17858800Y-10597829D01*
X17844514Y-10654972D01*
X17830228Y-10683543D01*
X17815943Y-10697829D01*
X17787371Y-10712114D01*
X17758800Y-10712114D01*
X17730228Y-10697829D01*
X17715943Y-10683543D01*
X17701657Y-10654972D01*
X17687371Y-10597829D01*
X17687371Y-10526400D01*
X17701657Y-10469257D01*
X17715943Y-10440686D01*
X17730228Y-10426400D01*
X17758800Y-10412114D01*
X17987371Y-10683543D02*
X18001657Y-10697829D01*
X17987371Y-10712114D01*
X17973086Y-10697829D01*
X17987371Y-10683543D01*
X17987371Y-10712114D01*
X18187371Y-10412114D02*
X18215943Y-10412114D01*
X18244514Y-10426400D01*
X18258800Y-10440686D01*
X18273086Y-10469257D01*
X18287371Y-10526400D01*
X18287371Y-10597829D01*
X18273086Y-10654972D01*
X18258800Y-10683543D01*
X18244514Y-10697829D01*
X18215943Y-10712114D01*
X18187371Y-10712114D01*
X18158800Y-10697829D01*
X18144514Y-10683543D01*
X18130228Y-10654972D01*
X18115943Y-10597829D01*
X18115943Y-10526400D01*
X18130228Y-10469257D01*
X18144514Y-10440686D01*
X18158800Y-10426400D01*
X18187371Y-10412114D01*
X18387371Y-10412114D02*
X18573086Y-10412114D01*
X18473086Y-10526400D01*
X18515943Y-10526400D01*
X18544514Y-10540686D01*
X18558800Y-10554972D01*
X18573086Y-10583543D01*
X18573086Y-10654972D01*
X18558800Y-10683543D01*
X18544514Y-10697829D01*
X18515943Y-10712114D01*
X18430228Y-10712114D01*
X18401657Y-10697829D01*
X18387371Y-10683543D01*
X18858800Y-10712114D02*
X18687371Y-10712114D01*
X18773086Y-10712114D02*
X18773086Y-10412114D01*
X18744514Y-10454972D01*
X18715943Y-10483543D01*
X18687371Y-10497829D01*
X18973086Y-10412114D02*
X18973086Y-10469257D01*
X19087371Y-10412114D02*
X19087371Y-10469257D01*
X19530228Y-10826400D02*
X19515943Y-10812114D01*
X19487371Y-10769257D01*
X19473086Y-10740686D01*
X19458800Y-10697829D01*
X19444514Y-10626400D01*
X19444514Y-10569257D01*
X19458800Y-10497829D01*
X19473086Y-10454972D01*
X19487371Y-10426400D01*
X19515943Y-10383543D01*
X19530228Y-10369257D01*
X19773086Y-10412114D02*
X19715943Y-10412114D01*
X19687371Y-10426400D01*
X19673086Y-10440686D01*
X19644514Y-10483543D01*
X19630228Y-10540686D01*
X19630228Y-10654972D01*
X19644514Y-10683543D01*
X19658800Y-10697829D01*
X19687371Y-10712114D01*
X19744514Y-10712114D01*
X19773086Y-10697829D01*
X19787371Y-10683543D01*
X19801657Y-10654972D01*
X19801657Y-10583543D01*
X19787371Y-10554972D01*
X19773086Y-10540686D01*
X19744514Y-10526400D01*
X19687371Y-10526400D01*
X19658800Y-10540686D01*
X19644514Y-10554972D01*
X19630228Y-10583543D01*
X20158800Y-10712114D02*
X20158800Y-10412114D01*
X20287371Y-10712114D02*
X20287371Y-10554972D01*
X20273086Y-10526400D01*
X20244514Y-10512114D01*
X20201657Y-10512114D01*
X20173086Y-10526400D01*
X20158800Y-10540686D01*
X20473086Y-10712114D02*
X20444514Y-10697829D01*
X20430228Y-10683543D01*
X20415943Y-10654972D01*
X20415943Y-10569257D01*
X20430228Y-10540686D01*
X20444514Y-10526400D01*
X20473086Y-10512114D01*
X20515943Y-10512114D01*
X20544514Y-10526400D01*
X20558800Y-10540686D01*
X20573086Y-10569257D01*
X20573086Y-10654972D01*
X20558800Y-10683543D01*
X20544514Y-10697829D01*
X20515943Y-10712114D01*
X20473086Y-10712114D01*
X20744514Y-10712114D02*
X20715943Y-10697829D01*
X20701657Y-10669257D01*
X20701657Y-10412114D01*
X20973086Y-10697829D02*
X20944514Y-10712114D01*
X20887371Y-10712114D01*
X20858800Y-10697829D01*
X20844514Y-10669257D01*
X20844514Y-10554972D01*
X20858800Y-10526400D01*
X20887371Y-10512114D01*
X20944514Y-10512114D01*
X20973086Y-10526400D01*
X20987371Y-10554972D01*
X20987371Y-10583543D01*
X20844514Y-10612114D01*
X21101657Y-10697829D02*
X21130228Y-10712114D01*
X21187371Y-10712114D01*
X21215943Y-10697829D01*
X21230228Y-10669257D01*
X21230228Y-10654972D01*
X21215943Y-10626400D01*
X21187371Y-10612114D01*
X21144514Y-10612114D01*
X21115943Y-10597829D01*
X21101657Y-10569257D01*
X21101657Y-10554972D01*
X21115943Y-10526400D01*
X21144514Y-10512114D01*
X21187371Y-10512114D01*
X21215943Y-10526400D01*
X21330228Y-10826400D02*
X21344514Y-10812114D01*
X21373086Y-10769257D01*
X21387371Y-10740686D01*
X21401657Y-10697829D01*
X21415943Y-10626400D01*
X21415943Y-10569257D01*
X21401657Y-10497829D01*
X21387371Y-10454972D01*
X21373086Y-10426400D01*
X21344514Y-10383543D01*
X21330228Y-10369257D01*
M02*
